<svg width="24" height="24" fill="none" xmlns="http://www.w3.org/2000/svg"><path fill-rule="evenodd" clip-rule="evenodd" d="M9.75 18.307L4.793 13.35a2.234 2.234 0 01-.66-1.597c0-.6.232-1.17.66-1.59a2.257 2.257 0 013.18.007l.277.27V3.743a2.257 2.257 0 012.25-2.25c.6 0 1.17.232 1.59.66.428.427.66.99.66 1.597v3.315L18 8.475a2.25 2.25 0 011.373 1.065c.3.533.375 1.14.202 1.725L18 16.755v4.995H9.75v-3.443zm1.065-1.057h5.703l.012-.802 1.605-5.595a.776.776 0 00-.067-.578.723.723 0 00-.458-.352l-6.36-1.71V3.75a.742.742 0 00-.217-.532.75.75 0 00-.533-.225.752.752 0 00-.75.75v9.007H8.438l-1.523-1.522a.747.747 0 00-1.275.532c0 .203.075.39.218.533l4.957 4.957zm5.685 3h-5.25v-1.5h5.25v1.5z" fill="#111"/></svg>