<svg width="24" height="24" fill="none" xmlns="http://www.w3.org/2000/svg"><path d="M12 2C6.485 2 2 6.485 2 12s4.485 10 10 10 10-4.485 10-10S17.515 2 12 2zm0 18.02c-.92 0-1.91-1.307-2.535-3.386a17.323 17.323 0 012.525-.178c.881 0 1.733.069 2.545.178C13.91 18.713 12.92 20.02 12 20.02zm-.02-5.545c-1.01 0-2.01.08-2.95.218a17.966 17.966 0 01-.178-1.703h6.277c-.03.594-.09 1.168-.178 1.713a19.11 19.11 0 00-2.97-.228zM12 3.98c.92 0 1.91 1.307 2.535 3.386a17.6 17.6 0 01-2.545.179c-.871 0-1.713-.06-2.525-.179C10.09 5.287 11.08 3.98 12 3.98zm-.02 5.545c1.02 0 2.02-.08 2.98-.228.08.545.149 1.109.179 1.713H8.86c.03-.594.09-1.168.179-1.703.94.139 1.93.218 2.94.218zM6.871 11.01H4.05A7.89 7.89 0 015 8.109a11.75 11.75 0 002.09.782 20.165 20.165 0 00-.219 2.119zm0 1.98c.03.733.11 1.446.208 2.119a11.76 11.76 0 00-2.089.782 8.077 8.077 0 01-.95-2.9h2.83zm10.248 0h2.832A7.878 7.878 0 0119 15.901a12.58 12.58 0 00-2.09-.792c.11-.673.18-1.376.209-2.119zm0-1.98a18.001 18.001 0 00-.219-2.13 11.754 11.754 0 002.09-.792c.494.881.82 1.871.95 2.911h-2.822v.01zm.683-4.535c-.406.178-.851.337-1.317.476a11.26 11.26 0 00-.802-2.07c.792.416 1.505.96 2.119 1.594zM8.317 4.891a11.094 11.094 0 00-.802 2.08 11.9 11.9 0 01-1.327-.476 7.675 7.675 0 012.129-1.604zM6.188 17.515c.406-.178.852-.337 1.327-.475.218.762.485 1.465.802 2.069a7.838 7.838 0 01-2.129-1.594zm9.495 1.604c.317-.614.575-1.307.802-2.07.475.14.911.298 1.317.476a8.385 8.385 0 01-2.119 1.594z" fill="#111"/></svg>