<svg width="22" height="22" fill="none" xmlns="http://www.w3.org/2000/svg"><path fill-rule="evenodd" clip-rule="evenodd" d="M8.363 5.039c.683-.031.901-.039 2.64-.039H11c1.739 0 1.956.008 2.639.039.681.03 1.147.139 1.555.297.42.163.777.382 1.133.738s.575.713.739 1.134c.157.407.265.872.297 1.553.03.683.039.9.039 2.64 0 1.737-.008 1.955-.04 2.638-.031.68-.14 1.146-.296 1.553-.164.42-.383.778-.74 1.133a3.13 3.13 0 01-1.132.74c-.407.157-.873.265-1.554.297-.683.03-.9.038-2.639.038-1.738 0-1.956-.008-2.638-.038-.682-.032-1.147-.14-1.554-.298a3.133 3.133 0 01-1.133-.738 3.137 3.137 0 01-.738-1.134c-.159-.407-.266-.872-.298-1.554-.03-.682-.038-.9-.038-2.638s.008-1.956.038-2.639c.03-.681.139-1.146.297-1.553.164-.421.383-.778.74-1.134a3.134 3.134 0 011.133-.738c.407-.158.872-.266 1.553-.297zm2.424 1.114h-.36v-.001c-1.193.001-1.422.01-2.013.036-.624.029-.962.133-1.188.22a1.986 1.986 0 00-.736.48 1.983 1.983 0 00-.479.735c-.087.226-.192.565-.22 1.189-.031.674-.037.876-.037 2.585 0 1.71.006 1.912.037 2.586.028.624.133.963.22 1.188.116.3.255.512.479.736.224.224.437.363.736.479.226.087.564.192 1.188.22.675.031.878.038 2.587.038 1.708 0 1.911-.007 2.586-.037.624-.029.963-.133 1.188-.221.299-.116.511-.255.736-.479.224-.224.363-.436.479-.735.087-.225.191-.564.22-1.188.03-.675.037-.877.037-2.585s-.006-1.911-.037-2.586c-.029-.624-.133-.962-.22-1.188a1.987 1.987 0 00-.48-.736 1.979 1.979 0 00-.735-.478c-.226-.088-.564-.192-1.188-.22-.675-.031-.878-.038-2.586-.038h-.214z" fill="#111"/><path fill-rule="evenodd" clip-rule="evenodd" d="M14.416 7.216a.768.768 0 100 1.535.768.768 0 000-1.535zM7.715 11.4a3.287 3.287 0 116.574 0 3.287 3.287 0 01-6.574 0zm5.419 0a2.133 2.133 0 10-4.267 0 2.133 2.133 0 004.267 0z" fill="#111"/></svg>