<svg width="22" height="22" fill="none" xmlns="http://www.w3.org/2000/svg"><path d="M8.403 17c5.283 0 8.172-4.232 8.172-7.903 0-.12 0-.24-.008-.359A5.74 5.74 0 0018 7.301a5.879 5.879 0 01-1.65.437A2.805 2.805 0 0017.613 6.2a5.874 5.874 0 01-1.824.675 2.907 2.907 0 00-1.63-.84 2.96 2.96 0 00-1.82.293 2.82 2.82 0 00-1.263 1.303 2.695 2.695 0 00-.182 1.777 8.374 8.374 0 01-3.279-.843 8.11 8.11 0 01-2.64-2.06A2.7 2.7 0 004.66 8.53a2.78 2.78 0 001.204 1.683 2.921 2.921 0 01-1.304-.347v.035c0 .641.23 1.263.65 1.759.42.496 1.004.837 1.654.964a2.961 2.961 0 01-1.297.047 2.786 2.786 0 001.023 1.38 2.94 2.94 0 001.661.55 5.837 5.837 0 01-2.007.984A5.953 5.953 0 014 15.752a8.336 8.336 0 004.403 1.246" fill="#111"/></svg>