<svg width="60" height="34" fill="none" xmlns="http://www.w3.org/2000/svg"><path fill-rule="evenodd" clip-rule="evenodd" d="M51.016 6.17L48.38 8.796c2.72 1.805 4.45 4.759 4.45 8.205 0 5.498-4.532 9.929-10.137 9.929H29.917l-3.708 3.61h16.566c7.664 0 13.846-6.072 13.846-13.539-.083-4.43-2.226-8.37-5.605-10.83zm-33.79-2.708c-7.666 0-13.847 6.072-13.847 13.54 0 4.43 2.143 8.369 5.522 10.83l2.637-2.625c-2.72-1.806-4.45-4.76-4.45-8.206 0-5.497 4.533-9.928 10.137-9.928h12.857l3.709-3.61H17.225zm25.549 7.221c1.07 0 2.06.246 2.967.739l2.72-2.626c-1.649-1.067-3.545-1.723-5.688-1.723H30.083l-3.709 3.61h16.402zM17.225 23.32a6.489 6.489 0 01-2.885-.656l-2.72 2.626a10.188 10.188 0 005.605 1.64h12.61l3.709-3.61H17.225zm-2.72-6.318c0-1.477 1.236-2.626 2.72-2.626h5.44l3.708-3.61h-9.148c-3.544 0-6.429 2.79-6.429 6.318 0 2.38 1.402 4.513 3.462 5.58l2.967-2.872c-1.484-.164-2.72-1.313-2.72-2.79zm22.83 2.626h-20.11l5.44-5.333h20.027l-5.357 5.333zm8.407-8.205l-2.967 2.871c1.483 0 2.72 1.231 2.72 2.626 0 1.395-1.237 2.626-2.72 2.626h-5.44l-3.709 3.61h9.149c3.544 0 6.428-2.79 6.428-6.318-.082-2.215-1.483-4.349-3.462-5.415z" fill="#fff"/></svg>