<svg width="30" height="30" fill="none" xmlns="http://www.w3.org/2000/svg"><path d="M10 16.25V5.625a1.875 1.875 0 113.75 0V15m0-.625v-2.5a1.875 1.875 0 113.75 0V15m0-1.875a1.875 1.875 0 113.75 0V15" stroke="#000" stroke-width="2" stroke-linecap="round" stroke-linejoin="round"/><path d="M21.25 14.375a1.875 1.875 0 113.75 0V20a7.5 7.5 0 01-7.5 7.5H15h.26a7.501 7.501 0 01-6.265-3.375l-.245-.375c-.39-.599-1.759-2.985-4.107-7.16a1.875 1.875 0 01.67-2.527 2.334 2.334 0 012.85.35L10 16.25M6.25 3.75L5 2.5m0 6.25H3.75m13.75-5l1.25-1.25m0 5H20" stroke="#000" stroke-width="2" stroke-linecap="round" stroke-linejoin="round"/></svg>